<mxfile host="app.diagrams.net" agent="Mozilla/5.0 (Windows NT 10.0; Win64; x64) AppleWebKit/537.36 (KHTML, like Gecko) Chrome/135.0.0.0 Safari/537.36" version="26.2.15">
  <diagram name="第 1 页" id="T__zH5u9pfDx6MV4mCPC">
    <mxGraphModel dx="1426" dy="743" grid="0" gridSize="10" guides="1" tooltips="1" connect="1" arrows="1" fold="1" page="1" pageScale="1" pageWidth="827" pageHeight="1169" math="0" shadow="0">
      <root>
        <mxCell id="0" />
        <mxCell id="1" parent="0" />
        <mxCell id="rLnV3Lh0_fnLKnpBGEW6-4" style="edgeStyle=orthogonalEdgeStyle;rounded=0;orthogonalLoop=1;jettySize=auto;html=1;exitX=0.5;exitY=1;exitDx=0;exitDy=0;entryX=0.5;entryY=0;entryDx=0;entryDy=0;" edge="1" parent="1" source="rLnV3Lh0_fnLKnpBGEW6-1" target="rLnV3Lh0_fnLKnpBGEW6-3">
          <mxGeometry relative="1" as="geometry" />
        </mxCell>
        <mxCell id="rLnV3Lh0_fnLKnpBGEW6-1" value="开始" style="rounded=1;whiteSpace=wrap;html=1;" vertex="1" parent="1">
          <mxGeometry x="320" y="30" width="76" height="30" as="geometry" />
        </mxCell>
        <mxCell id="rLnV3Lh0_fnLKnpBGEW6-2" value="&lt;div style=&quot;text-align: left;&quot;&gt;&lt;span style=&quot;background-color: transparent; color: light-dark(rgb(0, 0, 0), rgb(255, 255, 255));&quot;&gt;基础信息：&lt;/span&gt;&lt;span style=&quot;background-color: transparent; color: light-dark(rgb(0, 0, 0), rgb(255, 255, 255));&quot;&gt;机型、&lt;/span&gt;&lt;span style=&quot;background-color: transparent; color: light-dark(rgb(0, 0, 0), rgb(255, 255, 255));&quot;&gt;品名、&lt;/span&gt;&lt;span style=&quot;background-color: transparent; color: light-dark(rgb(0, 0, 0), rgb(255, 255, 255));&quot;&gt;图号、&lt;/span&gt;&lt;span style=&quot;background-color: transparent; color: light-dark(rgb(0, 0, 0), rgb(255, 255, 255)); text-align: center;&quot;&gt;金蝶计划单价、加工区分、停产标识、&lt;/span&gt;&lt;span style=&quot;background-color: transparent; color: light-dark(rgb(0, 0, 0), rgb(255, 255, 255));&quot;&gt;供应商、&lt;/span&gt;&lt;span style=&quot;background-color: transparent; color: light-dark(rgb(0, 0, 0), rgb(255, 255, 255));&quot;&gt;金蝶采购单价&lt;/span&gt;&lt;/div&gt;&lt;div style=&quot;text-align: left;&quot;&gt;&lt;span style=&quot;background-color: transparent; color: light-dark(rgb(0, 0, 0), rgb(255, 255, 255));&quot;&gt;&lt;br&gt;&lt;/span&gt;&lt;/div&gt;&lt;div style=&quot;text-align: left;&quot;&gt;&lt;span style=&quot;background-color: transparent; color: light-dark(rgb(0, 0, 0), rgb(255, 255, 255));&quot;&gt;毛坯信息：&lt;/span&gt;&lt;span style=&quot;background-color: transparent; color: light-dark(rgb(0, 0, 0), rgb(255, 255, 255));&quot;&gt;毛坯图号、&lt;/span&gt;&lt;span style=&quot;background-color: transparent; color: light-dark(rgb(0, 0, 0), rgb(255, 255, 255));&quot;&gt;毛坯用量、&lt;/span&gt;&lt;span style=&quot;background-color: transparent; color: light-dark(rgb(0, 0, 0), rgb(255, 255, 255));&quot;&gt;毛坯单位&lt;/span&gt;&lt;/div&gt;&lt;div style=&quot;text-align: left;&quot;&gt;&lt;span style=&quot;background-color: transparent; color: light-dark(rgb(0, 0, 0), rgb(255, 255, 255));&quot;&gt;&lt;br&gt;&lt;/span&gt;&lt;/div&gt;&lt;div style=&quot;text-align: left;&quot;&gt;&lt;span style=&quot;background-color: transparent; color: light-dark(rgb(0, 0, 0), rgb(255, 255, 255));&quot;&gt;工艺路线：&lt;/span&gt;&lt;span style=&quot;background-color: transparent; color: light-dark(rgb(0, 0, 0), rgb(255, 255, 255));&quot;&gt;工时费、&lt;/span&gt;&lt;span style=&quot;background-color: transparent; color: light-dark(rgb(0, 0, 0), rgb(255, 255, 255));&quot;&gt;内制工时（H）、&lt;/span&gt;&lt;span style=&quot;background-color: transparent; color: light-dark(rgb(0, 0, 0), rgb(255, 255, 255));&quot;&gt;主轴、&lt;/span&gt;&lt;span style=&quot;background-color: transparent; color: light-dark(rgb(0, 0, 0), rgb(255, 255, 255));&quot;&gt;MVR、&lt;/span&gt;&lt;span style=&quot;background-color: transparent; color: light-dark(rgb(0, 0, 0), rgb(255, 255, 255));&quot;&gt;OKK、&lt;/span&gt;&lt;span style=&quot;background-color: transparent; color: light-dark(rgb(0, 0, 0), rgb(255, 255, 255));&quot;&gt;PSG、&lt;/span&gt;&lt;span style=&quot;background-color: transparent; color: light-dark(rgb(0, 0, 0), rgb(255, 255, 255));&quot;&gt;FAM5、&lt;/span&gt;&lt;span style=&quot;background-color: transparent; color: light-dark(rgb(0, 0, 0), rgb(255, 255, 255));&quot;&gt;立加、&lt;/span&gt;&lt;span style=&quot;background-color: transparent; color: light-dark(rgb(0, 0, 0), rgb(255, 255, 255));&quot;&gt;MCV、&lt;/span&gt;&lt;span style=&quot;background-color: transparent; color: light-dark(rgb(0, 0, 0), rgb(255, 255, 255));&quot;&gt;ATT、&lt;/span&gt;&lt;span style=&quot;background-color: transparent; color: light-dark(rgb(0, 0, 0), rgb(255, 255, 255));&quot;&gt;涂装&lt;/span&gt;&lt;/div&gt;&lt;div style=&quot;text-align: left;&quot;&gt;&lt;span style=&quot;background-color: transparent; color: light-dark(rgb(0, 0, 0), rgb(255, 255, 255));&quot;&gt;&lt;br&gt;&lt;/span&gt;&lt;/div&gt;&lt;div style=&quot;text-align: left;&quot;&gt;&lt;span style=&quot;background-color: transparent; color: light-dark(rgb(0, 0, 0), rgb(255, 255, 255));&quot;&gt;配置费用：&lt;/span&gt;&lt;span style=&quot;background-color: transparent; color: light-dark(rgb(0, 0, 0), rgb(255, 255, 255));&quot;&gt;材料费、本次核算费用、&lt;/span&gt;&lt;span style=&quot;background-color: transparent; color: light-dark(rgb(0, 0, 0), rgb(255, 255, 255));&quot;&gt;委外费、&lt;/span&gt;&lt;span style=&quot;background-color: transparent; color: light-dark(rgb(0, 0, 0), rgb(255, 255, 255));&quot;&gt;耐磨片材料费、&lt;/span&gt;&lt;span style=&quot;background-color: transparent; color: light-dark(rgb(0, 0, 0), rgb(255, 255, 255));&quot;&gt;油漆费&lt;/span&gt;&lt;/div&gt;" style="rounded=0;whiteSpace=wrap;html=1;" vertex="1" parent="1">
          <mxGeometry x="485" y="140" width="320" height="160" as="geometry" />
        </mxCell>
        <mxCell id="rLnV3Lh0_fnLKnpBGEW6-8" style="edgeStyle=orthogonalEdgeStyle;rounded=0;orthogonalLoop=1;jettySize=auto;html=1;exitX=0.5;exitY=1;exitDx=0;exitDy=0;entryX=0.5;entryY=0;entryDx=0;entryDy=0;" edge="1" parent="1" source="rLnV3Lh0_fnLKnpBGEW6-3" target="rLnV3Lh0_fnLKnpBGEW6-7">
          <mxGeometry relative="1" as="geometry" />
        </mxCell>
        <mxCell id="rLnV3Lh0_fnLKnpBGEW6-9" value="N" style="edgeLabel;html=1;align=center;verticalAlign=middle;resizable=0;points=[];" vertex="1" connectable="0" parent="rLnV3Lh0_fnLKnpBGEW6-8">
          <mxGeometry x="-0.4" y="-1" relative="1" as="geometry">
            <mxPoint as="offset" />
          </mxGeometry>
        </mxCell>
        <mxCell id="rLnV3Lh0_fnLKnpBGEW6-10" style="edgeStyle=orthogonalEdgeStyle;rounded=0;orthogonalLoop=1;jettySize=auto;html=1;exitX=0;exitY=0.5;exitDx=0;exitDy=0;entryX=0.5;entryY=0;entryDx=0;entryDy=0;" edge="1" parent="1" source="rLnV3Lh0_fnLKnpBGEW6-3" target="rLnV3Lh0_fnLKnpBGEW6-6">
          <mxGeometry relative="1" as="geometry" />
        </mxCell>
        <mxCell id="rLnV3Lh0_fnLKnpBGEW6-12" value="Y" style="edgeLabel;html=1;align=center;verticalAlign=middle;resizable=0;points=[];" vertex="1" connectable="0" parent="rLnV3Lh0_fnLKnpBGEW6-10">
          <mxGeometry x="0.4839" y="-1" relative="1" as="geometry">
            <mxPoint x="1" y="6" as="offset" />
          </mxGeometry>
        </mxCell>
        <mxCell id="rLnV3Lh0_fnLKnpBGEW6-3" value="有无搜索条件" style="rhombus;whiteSpace=wrap;html=1;" vertex="1" parent="1">
          <mxGeometry x="293" y="90" width="130" height="40" as="geometry" />
        </mxCell>
        <mxCell id="rLnV3Lh0_fnLKnpBGEW6-14" style="edgeStyle=orthogonalEdgeStyle;rounded=0;orthogonalLoop=1;jettySize=auto;html=1;exitX=0.5;exitY=1;exitDx=0;exitDy=0;entryX=0;entryY=0.5;entryDx=0;entryDy=0;" edge="1" parent="1" source="rLnV3Lh0_fnLKnpBGEW6-6" target="rLnV3Lh0_fnLKnpBGEW6-13">
          <mxGeometry relative="1" as="geometry" />
        </mxCell>
        <mxCell id="rLnV3Lh0_fnLKnpBGEW6-6" value="使用搜索条件的（图号/品名）" style="rounded=0;whiteSpace=wrap;html=1;" vertex="1" parent="1">
          <mxGeometry x="170" y="170" width="92" height="40" as="geometry" />
        </mxCell>
        <mxCell id="rLnV3Lh0_fnLKnpBGEW6-15" style="edgeStyle=orthogonalEdgeStyle;rounded=0;orthogonalLoop=1;jettySize=auto;html=1;exitX=0.5;exitY=1;exitDx=0;exitDy=0;entryX=0.5;entryY=0;entryDx=0;entryDy=0;" edge="1" parent="1" source="rLnV3Lh0_fnLKnpBGEW6-7" target="rLnV3Lh0_fnLKnpBGEW6-13">
          <mxGeometry relative="1" as="geometry" />
        </mxCell>
        <mxCell id="rLnV3Lh0_fnLKnpBGEW6-7" value="使用配置表的图号" style="rounded=0;whiteSpace=wrap;html=1;" vertex="1" parent="1">
          <mxGeometry x="309" y="170" width="98" height="40" as="geometry" />
        </mxCell>
        <mxCell id="rLnV3Lh0_fnLKnpBGEW6-18" style="edgeStyle=orthogonalEdgeStyle;rounded=0;orthogonalLoop=1;jettySize=auto;html=1;exitX=0.5;exitY=1;exitDx=0;exitDy=0;entryX=0.5;entryY=0;entryDx=0;entryDy=0;" edge="1" parent="1" source="rLnV3Lh0_fnLKnpBGEW6-13" target="rLnV3Lh0_fnLKnpBGEW6-17">
          <mxGeometry relative="1" as="geometry" />
        </mxCell>
        <mxCell id="rLnV3Lh0_fnLKnpBGEW6-13" value="统计出一组List，以工艺表编码作为唯一主键。（需要在当前返回类中加2个字段，一个是工艺表Fid，另一个是工艺路线编码Fnumber）" style="rounded=0;whiteSpace=wrap;html=1;align=left;" vertex="1" parent="1">
          <mxGeometry x="248.75" y="240" width="218.5" height="60" as="geometry" />
        </mxCell>
        <mxCell id="rLnV3Lh0_fnLKnpBGEW6-21" style="edgeStyle=orthogonalEdgeStyle;rounded=0;orthogonalLoop=1;jettySize=auto;html=1;exitX=0;exitY=0.5;exitDx=0;exitDy=0;entryX=1;entryY=0.5;entryDx=0;entryDy=0;" edge="1" parent="1" source="rLnV3Lh0_fnLKnpBGEW6-17" target="rLnV3Lh0_fnLKnpBGEW6-19">
          <mxGeometry relative="1" as="geometry" />
        </mxCell>
        <mxCell id="rLnV3Lh0_fnLKnpBGEW6-22" value="Y" style="edgeLabel;html=1;align=center;verticalAlign=middle;resizable=0;points=[];" vertex="1" connectable="0" parent="rLnV3Lh0_fnLKnpBGEW6-21">
          <mxGeometry x="-0.1258" y="-2" relative="1" as="geometry">
            <mxPoint y="3" as="offset" />
          </mxGeometry>
        </mxCell>
        <mxCell id="rLnV3Lh0_fnLKnpBGEW6-24" style="edgeStyle=orthogonalEdgeStyle;rounded=0;orthogonalLoop=1;jettySize=auto;html=1;exitX=0.5;exitY=1;exitDx=0;exitDy=0;entryX=0.5;entryY=0;entryDx=0;entryDy=0;" edge="1" parent="1" source="rLnV3Lh0_fnLKnpBGEW6-17" target="rLnV3Lh0_fnLKnpBGEW6-23">
          <mxGeometry relative="1" as="geometry" />
        </mxCell>
        <mxCell id="rLnV3Lh0_fnLKnpBGEW6-25" value="N" style="edgeLabel;html=1;align=center;verticalAlign=middle;resizable=0;points=[];" vertex="1" connectable="0" parent="rLnV3Lh0_fnLKnpBGEW6-24">
          <mxGeometry x="-0.223" relative="1" as="geometry">
            <mxPoint as="offset" />
          </mxGeometry>
        </mxCell>
        <mxCell id="rLnV3Lh0_fnLKnpBGEW6-17" value="List是否为空" style="rhombus;whiteSpace=wrap;html=1;" vertex="1" parent="1">
          <mxGeometry x="296" y="326" width="124" height="40" as="geometry" />
        </mxCell>
        <mxCell id="rLnV3Lh0_fnLKnpBGEW6-34" style="edgeStyle=orthogonalEdgeStyle;rounded=0;orthogonalLoop=1;jettySize=auto;html=1;exitX=0.5;exitY=1;exitDx=0;exitDy=0;entryX=0;entryY=0.5;entryDx=0;entryDy=0;" edge="1" parent="1" source="rLnV3Lh0_fnLKnpBGEW6-19" target="rLnV3Lh0_fnLKnpBGEW6-32">
          <mxGeometry relative="1" as="geometry" />
        </mxCell>
        <mxCell id="rLnV3Lh0_fnLKnpBGEW6-19" value="返回空值" style="rounded=0;whiteSpace=wrap;html=1;" vertex="1" parent="1">
          <mxGeometry x="170" y="326" width="92" height="40" as="geometry" />
        </mxCell>
        <mxCell id="rLnV3Lh0_fnLKnpBGEW6-27" style="edgeStyle=orthogonalEdgeStyle;rounded=0;orthogonalLoop=1;jettySize=auto;html=1;exitX=0.5;exitY=1;exitDx=0;exitDy=0;entryX=0.5;entryY=0;entryDx=0;entryDy=0;" edge="1" parent="1" source="rLnV3Lh0_fnLKnpBGEW6-23" target="rLnV3Lh0_fnLKnpBGEW6-26">
          <mxGeometry relative="1" as="geometry" />
        </mxCell>
        <mxCell id="rLnV3Lh0_fnLKnpBGEW6-23" value="根据FMATERIALID查询并组装&lt;span style=&quot;background-color: rgb(255, 255, 51);&quot;&gt;基础信息&lt;/span&gt;&lt;span&gt;（这部分不受工艺路线影响，根据相同的&lt;span style=&quot;background-color: rgb(255, 255, 51);&quot;&gt;图号&lt;/span&gt;匹配）&lt;/span&gt;" style="rounded=0;whiteSpace=wrap;html=1;align=left;" vertex="1" parent="1">
          <mxGeometry x="258.87" y="396" width="198.25" height="54" as="geometry" />
        </mxCell>
        <mxCell id="rLnV3Lh0_fnLKnpBGEW6-29" style="edgeStyle=orthogonalEdgeStyle;rounded=0;orthogonalLoop=1;jettySize=auto;html=1;exitX=0.5;exitY=1;exitDx=0;exitDy=0;" edge="1" parent="1" source="rLnV3Lh0_fnLKnpBGEW6-26">
          <mxGeometry relative="1" as="geometry">
            <mxPoint x="357.6896551724137" y="580" as="targetPoint" />
          </mxGeometry>
        </mxCell>
        <mxCell id="rLnV3Lh0_fnLKnpBGEW6-26" value="查询&lt;span style=&quot;background-color: rgb(255, 255, 51);&quot;&gt;毛坯信息&lt;/span&gt;，把List中的数据分成两组：&lt;br&gt;1 有同时配置工艺路线和毛坯图号的，毛坯信息查取配置的毛坯图号，毛坯用量固定为1；&lt;div&gt;2 没配置的走原有的查BOM的sql&lt;/div&gt;" style="rounded=0;whiteSpace=wrap;html=1;align=left;" vertex="1" parent="1">
          <mxGeometry x="226.71" y="480" width="262.57" height="80" as="geometry" />
        </mxCell>
        <mxCell id="rLnV3Lh0_fnLKnpBGEW6-31" style="edgeStyle=orthogonalEdgeStyle;rounded=0;orthogonalLoop=1;jettySize=auto;html=1;exitX=0.5;exitY=1;exitDx=0;exitDy=0;entryX=0.5;entryY=0;entryDx=0;entryDy=0;" edge="1" parent="1" source="rLnV3Lh0_fnLKnpBGEW6-28" target="rLnV3Lh0_fnLKnpBGEW6-30">
          <mxGeometry relative="1" as="geometry" />
        </mxCell>
        <mxCell id="rLnV3Lh0_fnLKnpBGEW6-28" value="查询&lt;span style=&quot;background-color: rgb(255, 255, 51);&quot;&gt;工艺路线&lt;/span&gt;，需要图号+工艺Fid联合确定" style="rounded=0;whiteSpace=wrap;html=1;" vertex="1" parent="1">
          <mxGeometry x="286.5" y="580" width="143" height="45" as="geometry" />
        </mxCell>
        <mxCell id="rLnV3Lh0_fnLKnpBGEW6-33" style="edgeStyle=orthogonalEdgeStyle;rounded=0;orthogonalLoop=1;jettySize=auto;html=1;exitX=0.5;exitY=1;exitDx=0;exitDy=0;" edge="1" parent="1" source="rLnV3Lh0_fnLKnpBGEW6-30" target="rLnV3Lh0_fnLKnpBGEW6-32">
          <mxGeometry relative="1" as="geometry" />
        </mxCell>
        <mxCell id="rLnV3Lh0_fnLKnpBGEW6-30" value="查询&lt;span style=&quot;background-color: rgb(255, 255, 51);&quot;&gt;配置费用&lt;/span&gt;，相同的图号使用相同的配置（不考虑工艺路线）" style="rounded=0;whiteSpace=wrap;html=1;" vertex="1" parent="1">
          <mxGeometry x="286.5" y="650" width="143" height="45" as="geometry" />
        </mxCell>
        <mxCell id="rLnV3Lh0_fnLKnpBGEW6-32" value="结束" style="rounded=1;whiteSpace=wrap;html=1;" vertex="1" parent="1">
          <mxGeometry x="320" y="720" width="76" height="30" as="geometry" />
        </mxCell>
      </root>
    </mxGraphModel>
  </diagram>
</mxfile>
